<?xml version="1.0" encoding="UTF-8" standalone="no"?>
<!-- Created with Inkscape (http://www.inkscape.org/) -->

<svg
   xmlns:dc="http://purl.org/dc/elements/1.1/"
   xmlns:cc="http://creativecommons.org/ns#"
   xmlns:rdf="http://www.w3.org/1999/02/22-rdf-syntax-ns#"
   xmlns:svg="http://www.w3.org/2000/svg"
   xmlns="http://www.w3.org/2000/svg"
   xmlns:sodipodi="http://sodipodi.sourceforge.net/DTD/sodipodi-0.dtd"
   xmlns:inkscape="http://www.inkscape.org/namespaces/inkscape"
   width="135.88284mm"
   height="106.33575mm"
   viewBox="0 0 481.47464 376.78023"
   id="svg2"
   version="1.1"
   inkscape:version="0.91 r13725"
   sodipodi:docname="CyberMedics.svg">
  <defs
     id="defs4" />
  <sodipodi:namedview
     id="base"
     pagecolor="#ffffff"
     bordercolor="#666666"
     borderopacity="1.0"
     inkscape:pageopacity="0.0"
     inkscape:pageshadow="2"
     inkscape:zoom="0.49497475"
     inkscape:cx="582.27836"
     inkscape:cy="106.52327"
     inkscape:document-units="px"
     inkscape:current-layer="g3344"
     showgrid="false"
     inkscape:window-width="1920"
     inkscape:window-height="1017"
     inkscape:window-x="-8"
     inkscape:window-y="-8"
     inkscape:window-maximized="1"
     fit-margin-top="0"
     fit-margin-left="0"
     fit-margin-right="0"
     fit-margin-bottom="0" />
  <metadata
     id="metadata7">
    <rdf:RDF>
      <cc:Work
         rdf:about="">
        <dc:format>image/svg+xml</dc:format>
        <dc:type
           rdf:resource="http://purl.org/dc/dcmitype/StillImage" />
        <dc:title></dc:title>
      </cc:Work>
    </rdf:RDF>
  </metadata>
  <g
     inkscape:label="Layer 1"
     inkscape:groupmode="layer"
     id="layer1"
     transform="translate(-147.83409,-223.97205)">
    <g
       transform="matrix(1.25,0,0,-1.25,156.40544,698.60942)"
       inkscape:label="ink_ext_XXXXXX"
       id="g3344">
      <g
         transform="matrix(0.1,0,0,0.1,-6.8571433,78.285715)"
         id="g3346">
        <path
           inkscape:connector-curvature="0"
           id="path3348"
           style="fill:#f1501d;fill-opacity:1;fill-rule:nonzero;stroke:none"
           d="m 1908.26,2019.95 -147.69,-140.24 c -100.43,105.82 -213.19,158.73 -338.79,158.73 -105.83,0 -195.21,-36.21 -267.65,-108.39 -72.68,-72.17 -108.9,-161.05 -108.9,-266.87 0,-73.72 16.18,-139.21 48.29,-196.24 32.1,-57.28 77.57,-102.22 136.13,-134.85 58.82,-32.62 124.06,-48.8 195.98,-48.8 61.13,0 117.13,11.3 167.72,34.16 50.86,22.87 106.6,64.47 167.22,124.58 l 143.06,-149.49 c -81.68,-79.88 -158.99,-135.36 -231.68,-166.18 -72.69,-31.08 -155.91,-46.5 -249.14,-46.5 -172.1,0 -313.11,54.46 -422.79,163.62 -109.676,108.91 -164.383,248.89 -164.383,419.18 0,110.45 24.914,208.31 75.004,294.1 49.828,85.79 121.229,154.63 214.469,206.77 92.98,52.14 193.16,78.34 300.78,78.34 91.18,0 179.02,-19.26 263.79,-57.79 84.5,-38.53 157.45,-93.24 218.58,-164.13 l 0,0" />
        <path
           inkscape:connector-curvature="0"
           id="path3350"
           style="fill:#92191e;fill-opacity:1;fill-rule:evenodd;stroke:none"
           d="m 1908.3,2019.99 -147.7,-140.26 c -100.42,105.84 -213.19,158.75 -338.8,158.75 -105.82,0 -185.75,-47.16 -267.64,-108.4 -135.48,-101.32 -222.441,-421.85 -135.08,-704.7 -6.45,5.86 -12.8,11.9 -19.05,18.11 -109.686,108.91 -164.385,248.9 -164.385,419.19 0,110.46 24.902,208.31 74.996,294.13 49.839,85.78 121.249,154.61 214.479,206.76 92.99,52.15 193.17,78.35 300.79,78.35 91.2,0 179.04,-19.26 263.79,-57.8 84.52,-38.53 157.46,-93.23 218.6,-164.13 l 0,0" />
        <path
           inkscape:connector-curvature="0"
           id="path3352"
           style="fill:#f1501d;fill-opacity:1;fill-rule:evenodd;stroke:none"
           d="m 2015.12,2195.97 204.2,0 257.62,-771.87 -93.49,-334.7 -233.23,698.92 -2.99,-17.31 -1.27,22.79 -131.26,399.75 0.42,2.42 0,0" />
        <path
           inkscape:connector-curvature="0"
           id="path3354"
           style="fill:#92191e;fill-opacity:1;fill-rule:evenodd;stroke:none"
           d="m 2476.94,1424.1 258.94,771.87 66.79,-410.67 -233.24,-695.9 -185.98,0 93.49,334.7 0,0" />
        <path
           inkscape:connector-curvature="0"
           id="path3356"
           style="fill:#f1501d;fill-opacity:1;fill-rule:evenodd;stroke:none"
           d="m 2735.88,2195.97 203.69,0 185.45,-1106.57 -203.18,0 -118.16,698.92 -1.01,-3.02 -66.79,410.67 0,0" />
        <path
           inkscape:connector-curvature="0"
           id="path3358"
           style="fill:#92191e;fill-opacity:1;fill-rule:evenodd;stroke:none"
           d="m 2147.23,1771.01 -117.48,-681.61 -205.49,0 190.44,1104.15 131.26,-399.75 1.27,-22.79 0,0" />
        <path
           inkscape:connector-curvature="0"
           id="path3360"
           style="fill:#929393;fill-opacity:1;fill-rule:nonzero;stroke:none"
           d="m 2041.73,900.621 0,0 c 387.22,0 774.43,-0.32 1161.64,0.43 39.86,0.09 80.61,2.199 119.41,10.441 230.49,48.957 395.07,246.508 399.75,476.908 4.71,231.97 -153.08,437.27 -381.36,496.16 -69.22,17.85 -82.88,41.34 -64.51,110.9 2.23,8.46 4.55,16.9 6.57,25.39 44.59,187.7 -0.56,352.64 -140.99,482.78 -160.67,148.87 -347.98,175.34 -550,89.83 -59.24,-25.07 -73.64,-22.8 -117.42,25.48 -4.21,4.64 -8.4,9.3 -12.56,13.98 -115.56,129.85 -258.2,210.37 -429.98,240.78 -345.22,61.13 -686.42,-129.25 -816.48,-457.22 -30.23,-76.21 -50.35,-86.03 -128.18,-61.5 -129.811,40.9 -261.104,44.73 -392.64,11.91 C 260.066,2258.36 20.332,1802.96 175.93,1382.86 283.23,1093.22 561.973,901.52 880.086,900.82 1267.3,899.969 1654.51,900.621 2041.73,900.621 l 0,0 z M 29.3086,1866.17 c 101.9644,398.71 485.1954,677.53 894.1324,649.42 49.672,-3.43 99.579,-11.53 147.899,-23.5 27.31,-6.76 37.03,0.51 48.19,23.27 124,252.7 322.51,416.43 597.38,476.17 308.97,67.14 579.6,-15.4 805.69,-236.7 27.12,-26.56 47.27,-31.65 82.74,-19.29 366.64,127.67 767.91,-122.13 815.13,-508.92 7.9,-64.82 0.11,-131.92 -4.44,-197.67 -1.57,-22.69 0.7,-32.37 23.25,-41.26 215.16,-84.74 349.25,-240.25 399.15,-466.33 75.2,-340.78 -176.11,-697.001 -521.82,-740.419 -35.88,-4.5 -72.25,-7.382 -108.38,-7.402 -774.36,-0.41 -1548.7,-2.84 -2323.035,0.781 -374.722,1.762 -646.422,178.969 -808.0114,516.53 -86.76563,181.17 -96.8516,383.75 -47.875,575.32 l 0,0" />
        <path
           inkscape:connector-curvature="0"
           id="path3362"
           style="fill:#92191e;fill-opacity:1;fill-rule:nonzero;stroke:none"
           d="m 383.066,300.73 0.664,-1.988 c 0.883,-53.75 -14.269,-94.57 -45.57,-122.332 -31.191,-27.758 -75.43,-41.578 -132.613,-41.699 -58.399,0.121 -105.188,17.918 -140.4689,53.539 -35.3945,35.609 -52.9804,82.289 -52.9804,140.02 l 0,98.441 c 0,57.508 17.0351,104.078 50.9921,139.801 34.0625,35.84 79.0782,53.648 134.9372,53.648 59.836,0 106.18,-13.941 138.914,-41.808 C 369.684,550.48 385.609,510 384.723,456.91 l -0.993,-2 -106.625,0 c 0,28.981 -6.082,49.672 -18.468,62.16 -12.278,12.61 -32.52,18.809 -60.61,18.809 -24.558,0 -43.472,-9.848 -56.632,-29.649 -13.161,-19.679 -19.797,-46.011 -19.797,-78.859 l 0,-99.101 c 0,-33.071 7.187,-59.61 21.675,-79.411 14.493,-19.91 35.286,-29.867 62.274,-29.867 24.996,0 43.133,6.309 54.305,18.809 11.062,12.5 16.589,33.508 16.589,62.929 l 106.625,0 0,0" />
        <path
           inkscape:connector-curvature="0"
           id="path3364"
           style="fill:#92191e;fill-opacity:1;fill-rule:nonzero;stroke:none"
           d="m 573.637,296.09 0.332,-2.551 1.883,0 58.066,198.652 116.578,0 L 610.91,89.3711 C 600.07,63.4922 586.137,42.1406 569.102,25.2188 552.07,8.39844 524.859,0 487.699,0 c -9.402,0 -17.254,0.550781 -23.226,1.76953 -6.086,1.21094 -15.598,3.42969 -28.539,6.62891 l 13.273,78.09376 c 2.988,-0.6602 5.309,-1.1133 6.746,-1.4414 1.551,-0.332 3.539,-0.5508 5.863,-0.5508 17.254,0 29.973,2.5391 37.938,7.6289 7.961,5.0899 13.934,12.7231 17.809,22.9021 l 8.734,22.668 -121.219,354.492 116.356,0 52.203,-196.101 0,0" />
        <path
           inkscape:connector-curvature="0"
           id="path3366"
           style="fill:#92191e;fill-opacity:1;fill-rule:nonzero;stroke:none"
           d="m 994.488,316.219 c 0,31.082 -3.875,55.301 -11.613,72.441 -7.742,17.149 -22.234,25.77 -43.469,25.77 -11.832,0 -22.011,-2.211 -30.527,-6.629 -8.625,-4.43 -15.371,-10.84 -20.238,-19.36 l 0,-147.429 c 5.086,-7.301 11.945,-12.832 20.57,-16.492 8.516,-3.641 18.805,-5.528 30.859,-5.528 21.676,0 36.059,7.52 43.465,22.567 7.301,15.043 10.953,37.601 10.953,67.91 l 0,6.75 z m 109.282,-6.75 c 0,-53.418 -11.51,-95.899 -34.4,-127.418 -22.9,-31.52 -56.74,-47.219 -101.761,-47.34 -18.914,0.121 -35.613,4.211 -49.882,12.391 -14.27,8.187 -26.434,20.019 -36.61,35.617 l -6.414,-41.149 -95.676,0 0,505.461 109.614,0 0,-188.91 c 9.621,12.938 20.906,23.008 33.843,29.981 12.829,7.07 27.649,10.609 44.461,10.609 45.235,0 79.305,-16.59 102.315,-49.66 23,-33.071 34.51,-77.309 34.51,-132.832 l 0,-6.75" />
        <path
           inkscape:connector-curvature="0"
           id="path3368"
           style="fill:#92191e;fill-opacity:1;fill-rule:nonzero;stroke:none"
           d="m 1303.3,414.43 c -17.48,0 -30.31,-5.528 -38.72,-16.7 -8.29,-11.171 -13.05,-26.21 -14.37,-45.23 l 0.66,-1.551 94.57,0 0,8.403 c 0,18.14 -3.21,31.859 -9.51,41.148 -6.42,9.289 -17.26,13.93 -32.63,13.93 l 0,0 z m 4.31,-279.719 c -53.2,0.121 -94.79,16.148 -124.98,48.34 -30.09,32.191 -45.24,72.89 -45.24,122.109 l 0,12.379 c 0,53.543 14.27,97.231 42.69,130.852 28.43,33.73 69.46,50.55 123.22,50.32 47.34,0 84.06,-14.152 110.05,-42.469 25.99,-28.312 39.04,-67.14 39.04,-116.351 l 0,-57.411 -200.86,0 -0.66,-1.878 c 1.66,-18.36 8.52,-33.18 20.35,-44.571 11.95,-11.39 28.98,-17.039 51.21,-17.039 21.02,0 38.38,1.77 52.32,5.199 13.93,3.43 29.86,8.957 47.89,16.59 l 26.21,-66.801 c -15.15,-11.058 -35.39,-20.351 -60.94,-27.871 -25.44,-7.527 -52.32,-11.277 -80.3,-11.398 l 0,0" />
        <path
           inkscape:connector-curvature="0"
           id="path3370"
           style="fill:#92191e;fill-opacity:1;fill-rule:nonzero;stroke:none"
           d="m 1692.51,398.84 -35.61,0.332 c -12.5,0 -22.79,-2.32 -30.75,-6.973 -8.07,-4.64 -13.93,-11.168 -17.81,-19.578 l 0,-231.051 -109.61,0 0,350.621 103.09,0 3.87,-51.543 c 7.3,18.364 17.03,32.622 29.2,42.801 12.06,10.18 26.21,15.262 42.47,15.262 4.87,0 9.4,-0.332 13.27,-0.992 3.88,-0.66 7.97,-1.66 12.28,-2.989 l -10.4,-95.89 0,0" />
        <path
           inkscape:connector-curvature="0"
           id="path3372"
           style="fill:#f1501d;fill-opacity:1;fill-rule:nonzero;stroke:none"
           d="m 1988.38,283.148 1.88,0 106.62,330.262 144.9,0 0,-471.84 -109.5,0 0,303.942 -1.99,0.34 -103.97,-304.282 -73.55,0 -102.09,299.739 -1.99,-0.329 0,-299.41 -109.5,0 0,471.84 143.56,0 105.63,-330.262 0,0" />
        <path
           inkscape:connector-curvature="0"
           id="path3374"
           style="fill:#f1501d;fill-opacity:1;fill-rule:nonzero;stroke:none"
           d="m 2461.77,414.43 c -17.48,0 -30.31,-5.528 -38.72,-16.7 -8.29,-11.171 -13.05,-26.21 -14.37,-45.23 l 0.66,-1.551 94.57,0 0,8.403 c 0,18.14 -3.21,31.859 -9.51,41.148 -6.42,9.289 -17.26,13.93 -32.63,13.93 l 0,0 z m 4.31,-279.719 c -53.2,0.121 -94.79,16.148 -124.98,48.34 -30.09,32.191 -45.24,72.89 -45.24,122.109 l 0,12.379 c 0,53.543 14.27,97.231 42.69,130.852 28.43,33.73 69.46,50.55 123.22,50.32 47.34,0 84.06,-14.152 110.05,-42.469 25.99,-28.312 39.04,-67.14 39.04,-116.351 l 0,-57.411 -200.86,0 -0.66,-1.878 c 1.66,-18.36 8.52,-33.18 20.35,-44.571 11.95,-11.39 28.98,-17.039 51.21,-17.039 21.02,0 38.38,1.77 52.32,5.199 13.94,3.43 29.86,8.957 47.89,16.59 l 26.21,-66.801 c -15.15,-11.058 -35.39,-20.351 -60.94,-27.871 -25.44,-7.527 -52.31,-11.277 -80.3,-11.398 l 0,0" />
        <path
           inkscape:connector-curvature="0"
           id="path3376"
           style="fill:#f1501d;fill-opacity:1;fill-rule:nonzero;stroke:none"
           d="m 2752.21,309.469 c 0,-28.539 4.1,-50.77 12.39,-66.59 8.41,-15.918 22.34,-23.887 42.03,-23.887 11.4,0 21.57,2.11 30.31,6.309 8.74,4.199 15.93,10.508 21.57,18.691 l 0,141.578 c -5.64,9.289 -12.83,16.469 -21.46,21.34 -8.63,4.981 -18.58,7.52 -29.75,7.52 -19.47,0 -33.52,-8.961 -42.14,-26.871 -8.63,-17.918 -12.95,-41.7 -12.95,-71.34 l 0,-6.75 z m -109.6,6.75 c 0,54.633 11.94,98.773 35.83,132.172 23.89,33.511 57.52,50.32 100.98,50.32 16.15,0 30.86,-3.762 43.92,-11.281 13.05,-7.41 24.77,-18.028 35.17,-31.848 l 0,191.449 109.49,0 0,-505.461 -95.89,0 -7.52,42.801 c -10.51,-16.031 -22.89,-28.312 -37.05,-36.832 -14.16,-8.508 -30.42,-12.707 -48.78,-12.828 -43.24,0.121 -76.65,16.039 -100.43,48.008 -23.78,31.961 -35.72,74.211 -35.72,126.75 l 0,6.75" />
        <path
           inkscape:connector-curvature="0"
           id="path3378"
           style="fill:#f1501d;fill-opacity:1;fill-rule:nonzero;stroke:none"
           d="m 3144.86,573.48 -109.83,0 0,73.551 109.83,0 0,-73.551 z m 0,-431.91 -109.83,0 0,350.621 109.83,0 0,-350.621" />
        <path
           inkscape:connector-curvature="0"
           id="path3380"
           style="fill:#f1501d;fill-opacity:1;fill-rule:nonzero;stroke:none"
           d="m 3362.09,218.992 c 14.82,0 25.99,4.098 33.29,12.168 7.41,8.082 11.06,19.801 11.06,35.172 l 99.77,0 0.66,-1.992 c 0.89,-38.16 -12.39,-69.348 -39.7,-93.461 -27.32,-24.109 -62.39,-36.047 -105.08,-36.168 -53.42,0.121 -94.46,16.488 -123.32,49.437 -28.87,32.973 -43.25,75.883 -43.25,128.864 l 0,7.41 c 0,52.758 14.38,95.558 43.03,128.629 28.75,33.07 69.68,49.66 122.88,49.66 44.46,0 80.07,-12.379 106.73,-37.16 26.65,-24.781 39.6,-58.621 38.71,-101.539 l -0.66,-1.981 -99.77,0 c 0,16.59 -3.76,30.188 -11.28,40.699 -7.63,10.399 -18.8,15.7 -33.73,15.7 -21.24,0 -35.95,-8.508 -44.24,-25.438 -8.3,-17.031 -12.5,-39.812 -12.5,-68.57 l 0,-7.41 c 0,-29.422 4.2,-52.43 12.5,-69.02 8.29,-16.703 23.22,-25 44.9,-25 l 0,0" />
        <path
           inkscape:connector-curvature="0"
           id="path3382"
           style="fill:#f1501d;fill-opacity:1;fill-rule:nonzero;stroke:none"
           d="m 3734.39,240.121 c 0,8.629 -4.98,16.371 -14.82,23.121 -9.85,6.848 -27.66,12.938 -53.65,18.36 -40.81,7.957 -71.56,20.347 -92.35,37.05 -20.68,16.7 -31.08,39.817 -31.08,69.239 0,30.859 12.94,57.07 38.93,78.531 25.88,21.449 61.05,32.289 105.3,32.289 46.67,0 83.84,-10.5 111.48,-31.301 27.66,-20.898 40.82,-47.781 39.49,-80.851 l -0.66,-1.989 -106.29,0 c 0,13.828 -3.43,24.332 -10.29,31.41 -6.97,7.192 -18.25,10.731 -34.07,10.731 -11.39,0 -21.01,-3.102 -28.87,-9.402 -7.74,-6.2 -11.61,-14.27 -11.61,-24 0,-9.289 4.43,-17.149 13.39,-23.559 8.95,-6.531 27.09,-12.391 54.3,-17.59 43.03,-8.398 74.77,-21.008 95.23,-37.711 20.58,-16.699 30.86,-40.48 30.86,-71.117 0,-31.523 -14.04,-57.523 -42.03,-77.98 -27.98,-20.352 -64.92,-30.52 -110.93,-30.641 -47.79,0.121 -85.5,12.168 -113.26,36.391 -27.77,24.109 -41.04,51.207 -39.71,80.968 l 0.66,1.989 99.1,0 c 0.45,-16.707 5.53,-28.649 15.16,-36.059 9.62,-7.301 23.23,-10.949 40.92,-10.949 14.71,0 25.88,2.879 33.4,8.519 7.53,5.75 11.4,13.93 11.4,24.551 l 0,0" />
      </g>
    </g>
  </g>
</svg>
