<?xml version="1.0" encoding="UTF-8" standalone="no"?>
<!-- Created with Inkscape (http://www.inkscape.org/) -->

<svg
   version="1.1"
   id="svg2"
   width="849.40002"
   height="278.92001"
   viewBox="0 0 849.40002 278.92001"
   sodipodi:docname="Master_Horizontal_mag_pos.eps"
   xmlns:inkscape="http://www.inkscape.org/namespaces/inkscape"
   xmlns:sodipodi="http://sodipodi.sourceforge.net/DTD/sodipodi-0.dtd"
   xmlns="http://www.w3.org/2000/svg"
   xmlns:svg="http://www.w3.org/2000/svg">
  <defs
     id="defs6" />
  <sodipodi:namedview
     id="namedview4"
     pagecolor="#ffffff"
     bordercolor="#000000"
     borderopacity="0.25"
     inkscape:showpageshadow="2"
     inkscape:pageopacity="0.0"
     inkscape:pagecheckerboard="0"
     inkscape:deskcolor="#d1d1d1" />
  <g
     id="g8"
     inkscape:groupmode="layer"
     inkscape:label="ink_ext_XXXXXX"
     transform="matrix(1.3333333,0,0,-1.3333333,0,278.92)">
    <g
       id="g10"
       transform="scale(0.1)">
      <path
         d="m 2497.54,847.59 v 397.45 H 2307.98 V 847.59 Z m 14.54,466.26 61.91,-61.91 V 840.738 l -61.91,-61.906 h -280.5 v 535.018 h 280.5"
         style="fill:#222222;fill-opacity:1;fill-rule:nonzero;stroke:none"
         id="path12" />
      <path
         d="m 2930.31,1092.2 94.77,163.57 v 58.08 h 76.45 v -78.76 L 2968.54,1005.05 V 778.832 h -76.45 v 226.218 l -132.97,230.04 v 78.76 h 76.41 v -58.08 l 94.78,-163.57"
         style="fill:#222222;fill-opacity:1;fill-rule:nonzero;stroke:none"
         id="path14" />
      <path
         d="m 3629.07,778.832 h -76.42 v 54.25 L 3363.1,1160.22 V 778.832 h -76.44 v 535.018 h 76.44 l 189.55,-340.901 v 340.901 h 76.42 V 778.832"
         style="fill:#222222;fill-opacity:1;fill-rule:nonzero;stroke:none"
         id="path16" />
      <path
         d="m 3942.47,1073.06 h 189.56 v 56.55 l -67.26,115.43 h -55.05 l -67.25,-115.43 z m 266,-294.228 h -76.44 V 1004.31 H 3942.47 V 778.832 h -76.42 v 371.448 l 94.76,163.57 h 152.88 l 94.78,-163.57 V 778.832"
         style="fill:#222222;fill-opacity:1;fill-rule:nonzero;stroke:none"
         id="path18" />
      <path
         d="m 4711.42,847.59 v 175.79 H 4521.87 V 847.59 Z m 0,244.61 v 152.84 h -189.55 v -174.26 h 6.88 l 21.39,21.42 z m 76.42,5.31 -34.39,-34.38 v -10.68 l 34.39,-35.19 V 840.738 l -61.91,-61.906 h -280.51 v 535.018 h 280.51 l 61.91,-61.91 v -154.43"
         style="fill:#222222;fill-opacity:1;fill-rule:nonzero;stroke:none"
         id="path20" />
      <path
         d="m 5144.18,1092.2 94.78,163.57 v 58.08 h 76.42 v -78.76 L 5182.4,1005.05 V 778.832 h -76.42 v 226.218 l -133.02,230.04 v 78.76 h 76.45 v -58.08 l 94.77,-163.57"
         style="fill:#222222;fill-opacity:1;fill-rule:nonzero;stroke:none"
         id="path22" />
      <path
         d="m 5500.5,1245.04 v 68.81 h 342.41 v -68.81 h -133 V 778.832 h -76.42 V 1245.04 H 5500.5"
         style="fill:#222222;fill-opacity:1;fill-rule:nonzero;stroke:none"
         id="path24" />
      <path
         d="m 6132.76,846.84 h 237.7 v -68.809 h -342.41 v 535.019 h 342.41 v -68.76 H 6104.47 V 1091.4 h 259.88 v -68.76 H 6104.47 V 825.43 h 6.87 l 21.42,21.41"
         style="fill:#222222;fill-opacity:1;fill-rule:nonzero;stroke:none"
         id="path26" />
      <path
         d="m 1849.97,1143.61 c -1.83,-31.48 -8.2,-62.43 -14.22,-93.4 -2.19,-9.47 -4.73,-18.87 -7.17,-28.31 0.58,13.17 0.83,26.34 0.36,39.53 -1.86,58.66 -12.9,116.67 -31.48,171.79 -37.51,110.32 -102.5,209.21 -182.4,291.8 -39.99,41.35 -83.26,79.49 -129.51,113.52 -46.16,34.37 -94.66,64.51 -141.81,96.6 -94.99,63.33 -189.53,127.58 -288.54,185.57 -45.01,26.19 -90.802,51.44 -138.634,73.16 52.832,-11.7 105.584,-23.91 158.254,-36.47 62.83,-14.93 125.83,-29.63 187.04,-48.66 61.53,-18.59 120.43,-44.95 177.24,-74.44 113.66,-58.94 215.43,-141.91 290.16,-244.67 37.3,-51.29 67.59,-107.51 88.52,-166.95 21.36,-59.41 30.66,-122.31 34.98,-184.83 -0.23,-31.46 1.63,-62.92 -2.79,-94.24 z M 1323.75,256.789 C 1229.07,171.02 1122.6,95.5508 1002.68,52.3203 942.633,31.7383 879.332,20.6992 816.332,23.0586 753.52,25.5117 690.855,40.7305 635.055,69.9688 578.883,98.1484 527.914,136.43 483.773,181.66 c -13.835,14.512 -26.921,29.699 -39.675,45.172 32.097,-24.602 67.48,-44.922 105.3,-59.121 54.629,-20.691 113.086,-29.539 170.911,-29.199 116.269,-0.383 229.043,32.398 335.681,74.25 106.81,42.797 208.83,96.117 306.65,156.789 71.1,44.418 139.2,94.488 201.57,151.371 C 1491.05,426.98 1411.23,337.531 1323.75,256.789 Z M 116.352,1053.27 c -24.8325,126 -43.1645,253.32 -57.2934,381.05 -6.9844,63.68 -12.9102,128.32 -16.3398,191.42 -1.543,62.72 2.3242,126.19 19.414,185.47 16.6211,59.28 47.3162,113.89 92.3442,154.91 45.363,40.57 101.808,68.12 162.804,81.06 96.864,20.09 198.446,15.12 299.032,2.11 -20.118,-3.77 -40.047,-8.69 -59.266,-16.22 -56.973,-22.48 -104.727,-64.84 -139.492,-113.44 -16.418,-22.75 -30.078,-46.86 -42.071,-71.66 -13.261,-2.2 -26.496,-5.14 -39.648,-9.31 -12.344,-4.23 -24.543,-9.87 -35.617,-17.9 -11.192,-8.2 -20.496,-19.01 -27.254,-30.56 -13.496,-23.3 -19.914,-48.74 -23.742,-73.76 -7.703,-50.4 -4.434,-100.38 -2.539,-149.56 2.531,-50 6.484,-99.86 11.457,-149.59 -9.993,-53.86 -18.848,-107.94 -26.641,-162.18 -15.187,-113.84 -27.043,-228.55 -26.672,-343.938 -0.273,-88.371 5.149,-177.293 20.168,-264.871 -4.016,11.64 -8.43,23.129 -12.238,34.84 -40.086,121.55 -71.25,246.238 -96.406,372.129 z m 871.339,794.8 c -55.539,-8.9 -108.632,-26.97 -159.582,-49.92 -64.187,13.62 -128.652,26.28 -193.652,36.53 -48.973,7.47 -98.203,14.28 -148.035,17.14 -20.43,0.98 -41.106,1.29 -61.809,0.59 8.02,15.01 16.555,29.68 26.301,43.45 30.918,44.34 72.051,80.61 121.121,101.6 49.231,20.51 103.906,27.09 158.32,20.2 109.258,-14.32 213.723,-64.14 313.035,-117.86 34.26,-18.82 68.11,-38.51 101.8,-58.52 -51.36,13.54 -105.67,15.79 -157.499,6.79 z m 404.439,-288.03 c 19.88,-55.52 34.78,-112.79 46.12,-170.89 -22.53,22.5 -46.06,43.94 -71.26,63.14 -33.97,26.7 -70.4,48.85 -105.46,71.28 -35.28,22.68 -71.05,44.7 -106.83,66.74 -71.61,43.97 -143.83,87.29 -218.407,126.71 -31.367,16.39 -63.23,32.02 -95.828,46.2 25.652,-6.36 51.289,-12.84 76.902,-19.43 l 143.013,-36.97 c 47.96,-12.43 95.54,-23.19 140.94,-39.09 63.09,-21.4 124.58,-48.56 180.96,-83.48 3.38,-8.03 6.74,-16.07 9.85,-24.21 z m 146.65,-299.08 c -14.46,24.77 -31.21,47.92 -48.89,70.31 -13.45,75.56 -32.74,150.43 -61.74,222.04 8.92,-6.63 17.7,-13.45 26.25,-20.59 73.95,-60.03 134.4,-139.64 157.91,-232.66 11.87,-46.17 16.52,-94.72 12.34,-142.96 -4.29,-47.43 -14.31,-94.51 -29.28,-140.16 9.46,84.81 -14.77,171.01 -56.59,244.02 z M 973.07,414.43 c 40.11,17.211 79.09,36.621 117.17,57.32 l 41.94,22.789 h -1.71 c 59.77,34.383 117.9,71.633 173.07,113.012 43.52,32.988 85.53,68.238 124.63,106.609 -49.04,-64.301 -102.96,-124.84 -159.15,-182.941 l -0.27,-0.27 c -53.5,-54.758 -110.54,-106.058 -171.49,-151.117 -41.75,8.477 -83.31,20.797 -124.19,34.598 z M 727.738,354.539 c 44.239,-0.051 87.2,7.481 128.684,18.301 28.281,7.851 55.711,17.64 82.801,28.14 1.867,-0.742 3.691,-1.55 5.558,-2.281 39.375,-15.461 79.359,-29.879 120.579,-41.32 -6.29,-4.309 -12.36,-9 -18.73,-13.168 C 1006,318.68 963.258,296.699 918.609,282.68 c -44.386,-14.192 -91.281,-19.5 -134.726,-9.692 -43.176,9.684 -82.695,35.883 -116.66,67.364 -9.805,9.168 -19.102,18.957 -28.137,29.046 28.906,-10.109 59.219,-14.976 88.652,-14.859 z M 433.102,1253.48 c 4.121,-41.36 9.558,-82.58 15.769,-123.71 -10.457,-87.76 -16.141,-176.211 -15.332,-265.11 0.801,-38.012 2.578,-76.191 5.949,-114.308 -58.058,170.968 -98.027,348.538 -129.269,527.318 -0.43,2.49 -0.789,4.99 -1.211,7.48 13.125,26.48 27.93,52.24 44.414,76.97 24.902,38.04 52.902,74.11 82.961,108.65 -9.551,-35.52 -12.07,-71.57 -11.555,-107.14 1.66,-37.61 4.649,-73.52 8.274,-110.15 z m 340.711,518.04 c -14.102,-7.41 -28.094,-15.01 -41.864,-22.9 -52.051,-30.48 -101.758,-64.58 -149.777,-101.06 7.617,25.64 16.426,50.7 28.223,74.07 9.113,17.98 20.273,35.02 34.628,47.71 14.141,12.95 32.52,18.04 52.5,18.02 25.645,-0.97 51.204,-7.33 76.29,-15.84 z M 1013.8,1624.59 c -29.898,-4.37 -58.003,-13.49 -84.78,-24.68 -33.157,7.34 -66.465,14.32 -100.129,20.22 -71.993,12.83 -146.864,23.59 -223.36,9.12 -2.988,-0.59 -5.926,-1.62 -8.906,-2.32 45.82,38.63 93.645,75.05 143.801,107.82 16.668,10.7 33.769,20.86 51.152,30.53 7.938,-3.05 15.86,-6.16 23.652,-9.48 37.899,-16.77 75.02,-35.83 110.918,-57.11 39.207,-23 77.702,-47.28 115.892,-72.12 -9.56,-0.09 -19.04,-0.66 -28.24,-1.98 z m 504.11,-595.42 c -2.11,73.88 -6.18,147.91 -15.5,221.49 1.7,-2.73 3.78,-5.21 5.44,-7.98 42.49,-68.52 68.79,-148.79 61.92,-229.65 -3.23,-40.21 -12.91,-80.389 -29.62,-117.901 -7.52,-16.668 -16.1,-32.91 -25.38,-48.75 2.91,60.84 3.98,121.793 3.14,182.791 z M 1271.73,623.59 c 7.55,20.691 11.71,41.992 15.27,63.25 16.9,18.719 33.46,37.762 49.32,57.43 45.76,57.011 87.4,118.218 117.89,185.871 6.25,13.398 11.85,27.16 17.04,41.109 -0.31,-65.25 -2.28,-130.5 -6.35,-195.68 -58.45,-71.679 -129.95,-130.789 -207.56,-181.511 5.82,9.461 10.7,19.363 14.39,29.531 z M 545.66,508.891 c -15.324,29.339 -26.504,61.289 -35.344,94.089 19.473,-12.23 39.434,-23.64 59.825,-34.199 40.8,-21.429 82.851,-39.101 124.004,-58.699 66.457,-30.773 132.785,-62.023 200.5,-90.684 -15.469,-4.668 -30.957,-9.257 -46.594,-13.078 -39.676,-8.961 -80,-14.461 -119.453,-13.07 -39.305,1.172 -77.899,10.039 -109.414,29.82 -31.27,19.559 -55.321,51.27 -73.524,85.821 z m 213.965,986.169 -39.426,-30.68 2.442,0.45 c -36.504,-29.82 -71.914,-60.96 -104.578,-94.9 -43.391,-45.66 -84.485,-94.03 -116.661,-148.97 -0.05,-0.09 -0.097,-0.18 -0.148,-0.27 5.82,46.66 12.422,93.27 19.707,139.75 11.621,72.12 25.519,143.99 42.461,215.04 15.508,7.86 32.18,13.82 49.777,17.44 66.797,13.51 139.168,4.76 209.492,-7.33 18.172,-3.42 36.329,-7.15 54.473,-11.09 -41.738,-23.18 -80.461,-50.58 -117.539,-79.44 z m 274.175,41.66 c 35.22,-9.08 70.73,-17.47 103.97,-28.1 13.72,-4.26 27.08,-9.5 40.36,-14.87 9.26,-15.88 17.48,-32.61 24.56,-49.55 23.06,-54.86 37.5,-114.22 48.37,-174 0.47,-2.66 0.71,-5.36 1.17,-8.01 -9.78,10.21 -20.23,19.63 -31.06,27.96 -38.45,30.28 -82.6,50.67 -127.92,64.06 -11.39,3.51 -22.69,6.17 -33.98,8.79 -11.23,2.76 -22.01,6.39 -33.42,8.8 l -67.885,14.2 c -45.078,9.57 -90.442,18.2 -136.145,24.99 -22.812,3.57 -45.82,6.36 -69.031,7.49 -20.832,0.82 -42.121,0.45 -62.891,-4.98 27.207,21.91 55.379,42.59 83.946,62.03 l 0.886,0.6 c 49.075,34.05 100.833,64.11 154.708,86.48 34.804,-8.25 69.57,-17.06 104.362,-25.89 z m 100.5,13.41 c -30.79,8.73 -61.2,15.89 -91.4,23.29 -14.24,3.42 -28.59,6.67 -42.86,10.06 34.76,6.05 69.14,5.04 98.81,-8.69 12.91,-6.24 24.64,-14.72 35.45,-24.66 z m 157.48,-834.22 c 9.34,61.828 15.21,124.02 19.56,186.41 8.2,124.78 5.73,250.78 -14.8,375.84 -11.3,62.22 -26.08,124.6 -52.42,183.89 -0.17,0.35 -0.35,0.7 -0.5,1.05 120.39,-64.6 212.79,-180.78 223.49,-317.03 4.57,-69.2 -9.62,-139.9 -36.95,-205.57 -26.45,-66.191 -64.52,-127.871 -107.17,-185.918 -10.21,-13.543 -20.72,-26.891 -31.43,-40.094 0.08,0.473 0.14,0.953 0.22,1.422 z M 705.141,552.66 c -24.239,26.039 -44.989,55.129 -63.387,85.621 -30.52,52.629 -54.035,108.571 -73.418,166.16 30.594,-27.421 64.324,-51.132 100.195,-70.293 28.438,-15.777 58.094,-27.726 86.61,-39.808 28.73,-12.391 57.882,-23.961 86.992,-35.629 58.281,-23.211 116.926,-45.949 176.767,-65.512 29.99,-9.551 60.06,-19.07 90.92,-25.988 10.21,-2.289 20.57,-4.301 30.99,-6.063 -43.57,-34.668 -91,-64.519 -143.306,-83.359 -67.586,-23.59 -144.707,-23.051 -207.899,10.961 -31.523,16.289 -59.953,38.191 -84.464,63.91 z m -64.258,733.39 c 1.379,-46.12 5.285,-92.03 9.875,-137.98 10.41,-91.62 25.566,-183.621 56.199,-272.422 16.738,-43.828 35.93,-87.187 62.629,-127.476 7.598,-11.371 16.023,-22.383 25.078,-33.024 -36.641,17.524 -73.359,34.844 -107.453,53.063 -52.773,29.578 -101.856,65.988 -140.723,111.371 -0.574,0.656 -1.093,1.367 -1.668,2.027 -14.582,53.77 -26.445,108.422 -37.199,162.901 -6.016,29.77 -11.16,59.74 -16.043,89.75 1.192,11.95 2.352,23.9 3.672,35.85 5.82,14.75 12.539,29.19 20.008,43.16 33.644,63.26 80.781,117.48 133.996,165.51 -2.93,-7.54 -5.168,-15.26 -6.406,-23.05 -3.801,-23.39 -2.2,-46.7 -1.965,-69.68 z M 1254.21,1033.96 C 1225.83,951.379 1170.19,877.5 1109.28,811.102 l -0.11,-0.122 c -31.02,-32.39 -64.39,-62.46 -100.74,-86.5 -36.043,-23.16 -78.063,-40.601 -114.637,-32.199 -35.945,8.719 -66.465,42.641 -89.422,78.578 -23.437,36.59 -40.976,77.891 -56.23,119.813 -31.387,83.828 -55.95,171.658 -73.828,261.028 -9.219,44.65 -16.477,89.79 -21.172,135.14 -2.473,22.67 -3.731,45.46 -0.969,67.53 2.512,21.95 11.144,44.13 33.301,50.31 43.086,11.68 90.078,3.45 134.757,-3.42 45,-8.42 89.454,-19.9 133.817,-31.68 87.723,-24.38 179.933,-47.27 244.183,-106.64 31.89,-29.29 54.37,-65.93 64.43,-104.98 10.48,-39.56 4.97,-82.96 -8.45,-124 z M 504.945,623.941 c -18.281,78.161 -25.156,159.789 -26.777,241.297 -0.145,17.953 0.051,35.903 0.363,53.864 8.555,-17.364 18.758,-33.84 29.981,-49.43 5.008,-15.352 10.183,-30.641 15.789,-45.793 25.097,-69.149 56.152,-136.731 97.277,-198.379 29.297,-42.609 64.149,-83.039 105.938,-114.059 -9.153,3.95 -18.313,7.84 -27.453,11.809 -41.875,18.082 -83.758,36.32 -123.77,57.18 -24.871,12.691 -48.484,27.59 -71.348,43.511 z m 673.805,-30.742 c -8.69,-7.777 -17.59,-15.359 -26.62,-22.82 -13.27,1.98 -26.53,4.762 -39.54,8.101 -29.83,8.239 -59.37,18.04 -88.12,30.02 -33.243,13.57 -66.029,28.309 -98.634,43.5 12.996,1.27 25.605,4.211 37.352,8.238 23.945,8.102 45.542,19.953 65.642,33.192 39.73,27.129 74.24,59.441 106.03,93.601 l 49.05,52.699 -2.47,-0.871 c 37.66,44.551 71.63,92.871 96.63,147.121 1,-27.582 1.77,-55.199 2.25,-82.82 0.79,-61.762 -0.58,-123.699 -5.33,-185.301 -0.68,-8.648 -1.48,-17.289 -2.41,-25.879 -29.4,-34.66 -60.45,-67.98 -93.83,-98.781 z m 24.5,-24.539 c -12.48,-1.441 -25.19,-1.031 -37.91,0.18 6.74,5.582 13.41,11.262 19.98,17.012 29.3,25.808 57.2,53.109 83.93,81.539 -2.18,-13.559 -4.96,-26.942 -8.96,-39.922 -4.44,-14.379 -10.9,-28.18 -20.05,-39.289 -9.02,-11.258 -22.24,-17.219 -36.99,-19.52 z m -727.602,898 c 9.094,32.18 25.391,61.48 49.668,83.28 2.774,2.44 5.86,4.46 8.77,6.71 -17.332,-62.87 -32.332,-126.32 -45.965,-190.12 -5.859,-27.92 -11.191,-55.98 -16.262,-84.1 -6.621,63.56 -12.91,126.69 3.789,184.23 z m 603.442,-973.48 -0.3,-0.141 c -48.92,-24.098 -99.196,-45.238 -150.337,-62.68 -20.898,7.692 -41.738,15.602 -62.5,23.77 8.535,-1.059 17.098,-1.777 25.692,-1.949 37.011,-0.879 73.82,6.121 108.332,18.492 56.343,19.629 107.013,51.629 153.343,88.539 15.21,-1.961 30.65,-2.512 46.28,-0.992 -39.51,-23.18 -79.91,-44.797 -120.51,-65.039 z m -813.793,674.46 c 4.746,18.91 10.48,37.56 17.199,55.9 26.707,-176.67 66.133,-351.981 126.531,-521.438 -47.136,46.289 -86.66,99.98 -114.511,159.046 -18.953,40.184 -32.489,82.731 -39.18,126.211 -1.582,9.852 -2.586,19.751 -3.328,29.651 3.144,50.27 7.5,100.51 13.289,150.63 z M 1334.48,403.98 c -35.57,-22.031 -77.13,-34.039 -120.48,-35.539 -24.63,-0.742 -49.38,0.969 -74.13,4.207 52.49,43.883 101.05,91.903 146.76,142.024 l 33.52,36.75 -1.73,-0.641 c 51.27,58.707 99.73,119.86 143.84,184.117 -2.8,-37.75 -6.11,-75.726 -10.62,-112.398 -6.64,-43.281 -17.1,-86.379 -35.93,-124.648 -18.54,-38.372 -45.88,-71.454 -81.23,-93.872 z m -1.65,1275.74 c 7.27,-11.37 13.98,-23.07 20.43,-34.92 -44.61,24.33 -91.54,44.27 -139.62,59.87 -47.85,16.2 -96.71,26.76 -144.21,38.59 -47.81,11.9 -95.938,22.74 -144.075,33.66 -25.605,5.76 -51.25,11.42 -76.933,16.97 45.058,20.35 92.062,36.02 140.851,44.04 44.527,6.68 90.227,6.5 133.927,-3.41 43.5,-10.15 85.17,-29.06 119.93,-56.98 35.19,-27.19 65.27,-60.59 89.7,-97.82 z m -993.732,-96.56 c 12.683,55.1 26.562,110.8 42.011,164.29 9.09,28.3 19.735,56.21 32.344,82.95 23.68,1.21 47.793,0.44 71.602,-1.06 48.496,-3.55 97.09,-9.9 145.195,-19.26 14.688,-2.79 29.324,-5.91 43.973,-8.92 -14.649,-2.86 -29.071,-8.66 -40.313,-18.73 -17.324,-14.78 -29.648,-33.32 -39.785,-52.29 -17.84,-33.32 -28.777,-68.82 -39.687,-103.87 -15.653,-12.41 -31.2,-24.97 -46.465,-37.91 -69.785,-59.98 -135.321,-126.73 -186.914,-204.77 -7.821,-11.38 -15.204,-23.13 -22.332,-35.04 -1.114,7.27 -2.071,14.57 -3.145,21.85 12.773,71.24 27.352,142.19 43.516,212.76 z m -66.828,-14.62 c -3.907,48.67 -6.766,97.5 -0.391,144.58 3.195,23.41 9.023,46.55 19.98,66 10.637,19.63 28.77,32.13 50.84,39.79 7.16,2.19 14.61,3.5 21.985,5.02 -9.004,-20.92 -17.246,-42.13 -24.407,-63.59 -16.843,-56 -31.113,-110.96 -44.668,-166.93 -6.406,-26.35 -12.39,-52.8 -18.105,-79.31 -1.863,18.14 -3.731,36.28 -5.234,54.44 z M 325.465,415.141 c -22.832,51 -39.395,104.679 -51.535,159.441 -21.641,107.867 -29.129,218.598 -26.7,329.238 7.11,-18.531 15.098,-36.679 24.336,-54.129 37.754,-70.8 90.344,-132.132 150.95,-182.98 32.07,-83.102 68.476,-165.18 118.418,-240.672 27.871,-41.949 59.316,-82.258 97.441,-117.09 38.047,-34.32 83.426,-64.461 136.738,-75.91 52.782,-11.059 107.149,-4.168 155.469,12.82 48.711,16.852 93.278,41.633 134.988,69.512 14.32,9.899 27.92,20.609 41.62,31.188 35.01,-7.778 70.95,-12.969 107.8,-12.52 11.23,0.031 22.54,0.852 33.84,2.211 C 1183.93,297.73 1117.03,262.398 1048,232.121 944.125,187.77 833.188,155.82 720.328,154.512 c -112.16,-0.203 -225.441,40.5 -301.855,122.847 -38.496,40.133 -69.621,87.082 -93.008,137.782 z M 1773.08,897.25 c -16.68,-52.789 -39.37,-103.699 -68.7,-151 -29.72,-46.961 -63.34,-91.691 -101.37,-132.809 -46.7,-52.031 -99.51,-98.293 -154.98,-141.519 1.4,2.578 3.13,5.019 4.44,7.617 22.08,43.492 33.9,90.012 41.74,136.57 6.44,46.571 10.9,91.653 14.71,137.621 1.61,19.372 2.88,38.782 4.05,58.18 24.75,35.231 46.01,73.391 61.02,114.121 13.02,27.348 25.24,55.09 35.61,83.699 32.48,93.43 49.57,196.36 26.91,296.16 -21.23,100.09 -82.84,188.14 -159.18,254 -24.93,21.23 -51.41,40.41 -78.89,57.97 -13.75,26.05 -28.89,51.38 -46.03,75.44 -10.52,14.42 -22.17,27.99 -34.37,41.06 5.93,-3.79 11.88,-7.52 17.79,-11.3 48.11,-30.71 96.35,-61.38 141.82,-95.07 45.88,-33.42 87.19,-72.67 125.88,-113.84 77.46,-82.31 137.84,-181.24 169.81,-288.56 15.97,-53.57 24.68,-109.14 24.69,-164.63 0.38,-55.59 -10.33,-110.53 -24.95,-163.71 z m 115.21,342.48 c -5.59,65.96 -17.87,131.67 -41.86,193.47 -23.7,61.78 -56.96,119.5 -97.18,171.42 -80.81,103.77 -186.86,185.26 -302.89,243.68 -58.07,29.26 -118.44,53.97 -180.52,73 -62.09,19.45 -125.15,33.56 -187.55,50.11 -125.149,32.04 -250.2,65.07 -377.602,89.8 -63.7,12.17 -127.911,23.05 -193.223,27.68 -65.137,4.78 -131.602,4.98 -197.293,-8.04 C 244.547,2068.46 180.531,2039.52 128.57,1994.78 76.5664,1949.74 41.6953,1887.17 22.8867,1822.61 3.61719,1757.62 -0.882813,1690.57 0.132813,1624.43 3.10938,1558.52 8.46094,1494.45 14.957,1429.67 27.7891,1300.48 47.7578,1172.09 72.75,1044.61 98.8906,917.398 129.281,790.629 172.309,667.512 214.516,544.34 267.387,423.789 338.434,313.34 374.684,258.602 415.609,206.789 462.301,160.16 509.527,114.082 564.086,75.0195 623.969,46.8086 683.57,17.9805 749.41,1.83203 815.59,0.171875 881.82,-1.62891 947.75,10.6719 1009.56,32.582 c 124.49,43.3789 232.81,120.598 330.8,205.578 97.74,86.078 186.36,181.531 267.66,283.231 80.82,101.98 152.5,212.531 204.51,333.289 53.64,119.73 82.09,252.47 75.76,385.05"
         style="fill:#ff00e6;fill-opacity:1;fill-rule:nonzero;stroke:none"
         id="path28" />
    </g>
  </g>
</svg>
