<?xml version="1.0" encoding="UTF-8"?><svg id="Logos" xmlns="http://www.w3.org/2000/svg" viewBox="0 0 259 61"><defs><style>.cls-1{fill:#fff;}.cls-2{fill:#5ce500;}</style></defs><g><path class="cls-1" d="M75.07286,13.93995h-13.146V49.54096h5.83299v-13.97205h7.36101c7.965,0,12.35199-3.89099,12.35199-10.95898,0-3.20801-1.20999-10.66998-12.39999-10.66998Zm6.46899,10.76801c0,4.01495-2.08299,5.65198-7.19099,5.65198h-6.591v-11.16302h7.36101c4.323,0,6.42099,1.80402,6.42099,5.51105Zm23.29401-1.10504l.44099,.21301-.98999,5.26202-.681-.21002c-.558-.172-1.125-.25897-1.68501-.25897-5.44899,0-5.894,4.33997-5.894,9.58899v11.34302h-5.40199V23.39796h5.065v3.15399c1.37799-2.12103,3.04599-3.216,5.23999-3.48499,1.438-.16602,2.839,.02997,3.90601,.53595Zm13.278-.73199c-4.252,0-7.65601,1.61902-9.849,4.68103-2.302,3.216-2.64301,6.99701-2.64301,8.96399,0,8.26202,4.901,13.599,12.492,13.599,9.22299,0,12.495-7.42999,12.495-13.79102,0-3.65997-1.08501-6.98096-3.05-9.35297-2.226-2.68201-5.493-4.10004-9.44499-4.10004Zm0,22.41901c-4.22701,0-6.853-3.36298-6.853-8.77399,0-5.46899,2.62599-8.86798,6.853-8.86798,4.194,0,6.90199,3.44098,6.90199,8.77295,0,5.46906-2.646,8.86902-6.90199,8.86902Zm57.88898-21.68701l.44101,.21301-.99301,5.26202-.68198-.21002c-.55502-.172-1.12201-.25897-1.68402-.25897-5.448,0-5.88998,4.33997-5.88998,9.58899v11.34302h-5.40201V23.39796h5.06601v3.15399c1.37698-2.12103,3.04599-3.216,5.23999-3.48499,1.43701-.16602,2.836,.02997,3.90399,.53595Zm19.39902,17.55701l-.10001,.28699c-1.12701,3.21405-3.82199,3.888-5.88699,3.888-4.08701,0-6.71802-2.71295-6.974-7.12h18.48398l.06802-.513c.082-.60498,.06799-1.45697,.05899-2.07996-.00101-.17004-.00601-.323-.00601-.47205-.26999-7.31799-5.03998-12.23395-11.871-12.23395-3.98999,0-7.26099,1.56696-9.45999,4.53595-1.77701,2.401-2.798,5.72302-2.798,9.112,0,8.078,5.02402,13.50702,12.49802,13.50702,5.78198,0,9.76398-2.93896,11.216-8.27301l.17398-.638h-5.40298Zm-12.78201-7.63397c.45401-3.62201,2.935-5.92401,6.45901-5.92401,2.69299,0,5.88098,1.56598,6.327,5.92401h-12.78601Zm-30.664-7.93402c-1.74298-1.80701-4.07199-2.72101-6.94998-2.72101-7.925,0-11.533,6.974-11.533,13.453,0,6.64899,3.56599,13.35901,11.533,13.35901,2.65799,0,5.03299-.97797,6.74399-2.737-.01901,1.151-.04901,2.25-.08099,2.71698-.29401,4.31305-2.366,6.32104-6.52,6.32104-2.25999,0-4.853-.802-5.35399-3.05402l-.11-.49701-5.323,.00098,.086,.71301c.55699,4.60901,4.60399,7.47302,10.558,7.47302,5.22498,0,8.94299-1.96899,10.75-5.69,.87198-1.79303,1.31299-4.40698,1.31299-7.76501V23.39796h-5.11301v2.19397Zm-6.61198,19.26703c-1.88901,0-6.27701-.85602-6.27701-8.77405,0-5.20398,2.46001-8.43695,6.41901-8.43695,3.05901,0,6.32698,2.216,6.32698,8.43695,0,5.492-2.41898,8.77405-6.46898,8.77405Zm80.657-3.18805c0,4.15704-3.45102,8.35205-11.16101,8.35205-6.81799,0-10.87601-2.953-11.42099-8.31201l-.05801-.55103h5.31601l.08099,.40002c.65201,3.22198,3.72101,3.89801,6.18301,3.89801,2.69598,0,5.577-.87,5.577-3.30603,0-1.23499-.80402-2.11096-2.38699-2.60498-.94-.27899-2.09402-.604-3.315-.94501-2.103-.58801-4.27902-1.20099-5.61801-1.66199-3.31601-1.18799-5.21899-3.50104-5.21899-6.34601,0-5.271,5.13199-7.63098,10.215-7.63098,6.79901,0,10.31699,2.56097,10.759,7.82697l.04498,.54303-5.23898-.00403-.073-.41498c-.52701-3.03198-3.54102-3.48499-5.293-3.48499-1.51102,0-5.02701,.26996-5.02701,2.776,0,1.13898,.97299,1.97595,2.97601,2.55695,.59698,.16803,1.487,.39606,2.51398,.66205,2.13303,.552,4.79001,1.24097,6.12701,1.703,3.33099,1.17096,5.01801,3.37195,5.01801,6.54395Zm24.94901,0c0,4.15704-3.45102,8.35205-11.15802,8.35205-6.82001,0-10.87799-2.953-11.423-8.31201l-.05698-.55103h5.31699l.07901,.40002c.651,3.22198,3.72198,3.89801,6.18399,3.89801,2.69598,0,5.57501-.87,5.57501-3.30603,0-1.23499-.80402-2.11096-2.38501-2.60498-.94202-.27899-2.09601-.604-3.31799-.94501-2.10001-.58801-4.276-1.20099-5.61401-1.66199-3.31699-1.18799-5.21899-3.50104-5.21899-6.34601,0-5.271,5.13-7.63098,10.21399-7.63098,6.79901,0,10.31601,2.56097,10.75702,7.82697l.04599,.54303-5.23801-.00403-.073-.41498c-.52798-3.03198-3.54001-3.48499-5.29401-3.48499-1.509,0-5.026,.26996-5.026,2.776,0,1.13898,.974,1.97595,2.97501,2.55695,.59799,.16803,1.48502,.39606,2.51599,.66205,2.13202,.552,4.78802,1.24097,6.12701,1.703,3.32599,1.17096,5.01501,3.37195,5.01501,6.54395Z"/><path class="cls-1" d="M255.22411,26.20188c-2.01429,0-3.68265-1.56684-3.68265-3.72343,0-2.1569,1.66836-3.72343,3.68265-3.72343s3.68295,1.56654,3.68295,3.72343c0,2.15659-1.66866,3.72343-3.68295,3.72343Zm0-6.81602c-1.66836,0-3.01133,1.28163-3.01133,3.09259s1.34296,3.09259,3.01133,3.09259c1.66866,0,3.01131-1.28163,3.01131-3.09259s-1.34265-3.09259-3.01131-3.09259Zm-.42721,3.78446v1.24114h-1.09854v-3.90652h1.83119c.87467,0,1.44448,.50848,1.44448,1.3632,0,.6103-.28522,1.01727-.75291,1.18011l.8949,1.3632h-1.2203l-.75289-1.24114h-.34594Zm.61031-1.74993h-.61031v.87497h.61031c.32568,0,.50877-.16285,.50877-.42721,0-.26466-.1831-.44776-.50877-.44776Z"/></g><path class="cls-2" d="M48.50935,40.76544c0,.573-.405,1.271-.89799,1.55402l-12.507,7.22198V21.68445L10.98136,7.75641,23.48835,.53741c.493-.28595,1.304-.28595,1.798,0l23.22299,13.409v26.81903Zm-18.771-15.987L13.21836,15.23541c-.494-.284-1.301-.284-1.79601,0L.25836,21.68243l17.423,10.06,.003,20.12201,11.15601-6.44598c.495-.28601,.89799-.98602,.89799-1.55603V24.77844ZM.25836,41.80341l12.05399,6.96301v-13.92999L.25836,41.80341Z"/></svg>