<svg xmlns="http://www.w3.org/2000/svg" width="100" height="100" viewBox="0 0 100 100">
  <defs>
    <style>
      .circuit-line { stroke: #38a169; stroke-width: 1; fill: none; opacity: 0.3; }
      .circuit-node { fill: #38a169; opacity: 0.4; }
    </style>
  </defs>

  <!-- Horizontal lines -->
  <line class="circuit-line" x1="0" y1="20" x2="30" y2="20"/>
  <line class="circuit-line" x1="40" y1="20" x2="100" y2="20"/>
  <line class="circuit-line" x1="0" y1="50" x2="20" y2="50"/>
  <line class="circuit-line" x1="60" y1="50" x2="100" y2="50"/>
  <line class="circuit-line" x1="0" y1="80" x2="50" y2="80"/>
  <line class="circuit-line" x1="70" y1="80" x2="100" y2="80"/>

  <!-- Vertical lines -->
  <line class="circuit-line" x1="30" y1="0" x2="30" y2="20"/>
  <line class="circuit-line" x1="40" y1="20" x2="40" y2="50"/>
  <line class="circuit-line" x1="60" y1="50" x2="60" y2="80"/>
  <line class="circuit-line" x1="70" y1="80" x2="70" y2="100"/>
  <line class="circuit-line" x1="20" y1="50" x2="20" y2="100"/>
  <line class="circuit-line" x1="85" y1="0" x2="85" y2="30"/>

  <!-- Diagonal connections -->
  <line class="circuit-line" x1="30" y1="20" x2="40" y2="20"/>
  <line class="circuit-line" x1="20" y1="50" x2="40" y2="50"/>
  <line class="circuit-line" x1="40" y1="50" x2="60" y2="50"/>
  <line class="circuit-line" x1="50" y1="80" x2="70" y2="80"/>

  <!-- Circuit nodes (connection points) -->
  <circle class="circuit-node" cx="30" cy="20" r="3"/>
  <circle class="circuit-node" cx="40" cy="20" r="2"/>
  <circle class="circuit-node" cx="20" cy="50" r="3"/>
  <circle class="circuit-node" cx="40" cy="50" r="2"/>
  <circle class="circuit-node" cx="60" cy="50" r="3"/>
  <circle class="circuit-node" cx="50" cy="80" r="2"/>
  <circle class="circuit-node" cx="70" cy="80" r="3"/>
  <circle class="circuit-node" cx="85" cy="30" r="2"/>

  <!-- Small decorative elements -->
  <rect class="circuit-node" x="83" y="28" width="4" height="4" rx="1"/>
  <rect class="circuit-node" x="18" y="48" width="4" height="4" rx="1"/>
</svg>
